<svg width="134" height="140" viewBox="0 0 134 140" fill="none" xmlns="http://www.w3.org/2000/svg">
<g filter="url(#filter0_d_302_2813)">
<circle cx="66.9251" cy="64.6786" r="58.5641" transform="rotate(5.41841 66.9251 64.6786)" fill="#0B9529"/>
</g>
<g clip-path="url(#clip0_302_2813)">
<path fill-rule="evenodd" clip-rule="evenodd" d="M86.2426 51.2316C86.6331 51.6222 86.8525 52.152 86.8525 52.7045C86.8525 53.2569 86.6331 53.7867 86.2426 54.1774L62.8217 77.6003C62.6089 77.8132 62.3562 77.9821 62.0781 78.0973C61.8 78.2126 61.5019 78.2719 61.2009 78.2719C60.8999 78.2719 60.6018 78.2126 60.3237 78.0973C60.0456 77.9821 59.7929 77.8132 59.5801 77.6003L47.9426 65.9628C47.749 65.7692 47.5955 65.5394 47.4907 65.2865C47.3859 65.0336 47.332 64.7626 47.332 64.4888C47.332 64.2151 47.3859 63.944 47.4907 63.6911C47.5955 63.4382 47.749 63.2085 47.9426 63.0149C48.1361 62.8213 48.3659 62.6678 48.6188 62.563C48.8717 62.4583 49.1428 62.4044 49.4165 62.4044C49.6903 62.4044 49.9613 62.4583 50.2142 62.563C50.4671 62.6678 50.6969 62.8213 50.8905 63.0149L61.203 73.3274L83.2947 51.2316C83.6853 50.841 84.2151 50.6216 84.7676 50.6216C85.32 50.6216 85.8519 50.841 86.2426 51.2316Z" fill="white"/>
</g>
<defs>
<filter id="filter0_d_302_2813" x="0.453877" y="6.11053" width="132.942" height="132.942" filterUnits="userSpaceOnUse" color-interpolation-filters="sRGB">
<feFlood flood-opacity="0" result="BackgroundImageFix"/>
<feColorMatrix in="SourceAlpha" type="matrix" values="0 0 0 0 0 0 0 0 0 0 0 0 0 0 0 0 0 0 127 0" result="hardAlpha"/>
<feOffset dy="7.90306"/>
<feGaussianBlur stdDeviation="3.95153"/>
<feComposite in2="hardAlpha" operator="out"/>
<feColorMatrix type="matrix" values="0 0 0 0 0 0 0 0 0 0 0 0 0 0 0 0 0 0 0.25 0"/>
<feBlend mode="normal" in2="BackgroundImageFix" result="effect1_dropShadow_302_2813"/>
<feBlend mode="normal" in="SourceGraphic" in2="effect1_dropShadow_302_2813" result="shape"/>
</filter>
<clipPath id="clip0_302_2813">
<rect width="50" height="50" fill="white" transform="translate(42.0928 39.8461)"/>
</clipPath>
</defs>
</svg>
