<?xml version="1.0" encoding="iso-8859-1"?>
<!-- Uploaded to: SVG Repo, www.svgrepo.com, Generator: SVG Repo Mixer Tools -->
<svg height="800px" width="800px" version="1.1" id="Layer_1" xmlns="http://www.w3.org/2000/svg" xmlns:xlink="http://www.w3.org/1999/xlink" 
	 viewBox="0 0 512 512" xml:space="preserve">
<path style="fill:#BFA779;" d="M256,418.406c-21.171,0-38.4-17.229-38.4-38.4c0-6.528,1.877-12.851,5.734-19.345l3.721-6.255h57.882
	l3.721,6.255c3.866,6.494,5.734,12.817,5.734,19.345C294.4,401.186,277.171,418.406,256,418.406z"/>
<path style="fill:#FEDEA1;" d="M120.09,354.406l9.259-18.526c21.444-42.88,21.692-86.007,21.692-86.443v-46.071
	c0-57.873,47.087-104.96,104.96-104.96s104.96,47.087,104.96,104.96v46.071c0,0.418,0.375,43.81,21.692,86.443l9.259,18.526H120.09z
	"/>
<g>
	<path style="fill:#573A32;" d="M373.76,249.446v-46.08c0-64.93-52.83-117.76-117.76-117.76s-117.76,52.83-117.76,117.76v46.08
		c0,0.333-0.478,40.986-20.335,80.708c-3.968,7.936-3.541,17.357,1.118,24.909c4.668,7.552,12.902,12.143,21.777,12.143h65.809
		c-1.109,4.087-1.809,8.354-1.809,12.8c0,28.237,22.963,51.2,51.2,51.2s51.2-22.963,51.2-51.2c0-4.446-0.7-8.713-1.809-12.8H371.2
		c8.875,0,17.109-4.591,21.777-12.143c4.668-7.543,5.086-16.973,1.118-24.909C374.315,290.586,373.76,249.847,373.76,249.446z
		 M256,405.606c-14.114,0-25.6-11.486-25.6-25.6c0-4.762,1.664-8.977,3.934-12.8h43.332c2.27,3.823,3.934,8.038,3.934,12.8
		C281.6,394.121,270.114,405.606,256,405.606z M140.8,341.606c23.04-46.08,23.04-92.16,23.04-92.16v-46.08
		c0-50.901,41.259-92.16,92.16-92.16s92.16,41.259,92.16,92.16v46.08c0,0,0,46.08,23.04,92.16
		C348.16,341.606,163.84,341.606,140.8,341.606z"/>
	<path style="fill:#573A32;" d="M428.809,108.16l-21.598,13.679c17.63,27.733,27.989,60.527,27.989,95.761
		s-10.359,68.028-27.998,95.761L428.8,327.04c20.156-31.701,32-69.18,32-109.44S448.956,139.861,428.809,108.16z"/>
	<path style="fill:#573A32;" d="M83.191,108.16C63.044,139.861,51.2,177.34,51.2,217.6s11.844,77.739,31.991,109.44l21.598-13.679
		C87.159,285.628,76.8,252.834,76.8,217.6s10.359-68.028,27.998-95.761L83.191,108.16z"/>
	<path style="fill:#573A32;" d="M472.013,80.794l-21.606,13.679C473.071,130.142,486.4,172.305,486.4,217.6
		s-13.329,87.458-35.994,123.127l21.606,13.679C497.195,314.778,512,267.93,512,217.6S497.195,120.422,472.013,80.794z"/>
	<path style="fill:#573A32;" d="M61.594,94.473L39.987,80.794C14.805,120.422,0,167.27,0,217.6s14.805,97.178,39.987,136.806
		l21.606-13.679C38.929,305.058,25.6,262.895,25.6,217.6S38.929,130.142,61.594,94.473z"/>
</g>
</svg>