<?xml version="1.0" encoding="utf-8"?>
<svg xmlns="http://www.w3.org/2000/svg" width="600" zoomAndPan="magnify" viewBox="20.385 42.668 333.755 291.086" height="500" preserveAspectRatio="none" version="1.0" xmlns:bx="https://boxy-svg.com"><defs><clipPath id="14839d3625"><path d="M 26 48.640625 L 251 48.640625 L 251 256 L 26 256 Z M 26 48.640625 " clip-rule="nonzero"/></clipPath><bx:export><bx:file format="svg"/></bx:export></defs><g clip-path="url(#14839d3625)" style="" transform="matrix(0.930134, 0, 0, 1, 1.861634, 0)"><path fill="#9bab45" d="M 128.582031 48.671875 C 119.902344 48.671875 83.296875 60.734375 60.960938 74.820312 C 49.589844 86.003906 41.917969 97.867188 30.816406 113.703125 C 25.5 125.492188 26.78125 152.042969 26.78125 168.554688 C 31.625 181.289062 41.042969 200.023438 46.964844 207.367188 L 37.277344 234.660156 C 37.277344 234.660156 26.511719 255.484375 31.085938 255.484375 C 35.660156 255.484375 53.558594 251.441406 53.558594 251.441406 L 83.5 236.277344 C 99.179688 243.757812 115.730469 247.867188 125.285156 249.285156 C 141.703125 250.09375 191.695312 237.085938 191.695312 237.085938 C 191.695312 237.085938 210.734375 225.09375 221.300781 215.996094 C 235.5625 196.585938 250.570312 151.640625 250.570312 148.339844 C 250.570312 145.035156 242.226562 103.054688 232.871094 93.957031 C 226.613281 87.824219 205.824219 66.664062 205.824219 66.664062 C 205.824219 66.664062 154.6875 51.503906 128.582031 48.808594 Z M 128.582031 48.671875 " fill-opacity="1" fill-rule="nonzero"/></g><path fill="#f9ecd9" d="M 326.479 267.66 L 329.175 278.777 C 329.175 278.777 332.068 288.887 334.043 294.344 C 338.974 304.586 344.629 316.109 341.998 315.707 C 336.146 314.898 319.905 308.563 311.288 306.879 C 302.741 305.125 288.799 297.781 288.799 297.781 C 271.504 304.52 260.853 308.023 237.377 309.508 C 218.633 308.563 192.66 303.035 187.002 300.34 C 181.348 297.578 159.057 277.16 142.813 260.113 C 162.806 257.684 196.998 240.301 196.998 240.301 L 230.67 209.168 L 238.889 189.691 L 246.846 150.34 C 246.846 150.34 243.559 120.824 237.637 107.684 C 255.263 109.031 280.316 115.703 280.316 115.703 L 325.295 148.113 C 325.295 148.113 340.486 176.688 343.182 183.559 C 345.881 190.434 347.259 208.629 347.259 208.629 L 339.104 246.836 C 339.104 246.836 331.546 261.324 326.415 267.727 L 326.479 267.66 Z M 326.479 267.66" fill-opacity="1" fill-rule="nonzero" style=""/><path fill="#ffe7c9" d="M 147.176 144.496 C 146.977 145.508 146.102 150.023 145.965 150.496 C 145.023 153.391 142.535 160.738 141.527 161.277 C 139.641 162.422 131.566 165.926 129.75 165.926 C 128.07 165.926 123.965 165.59 121.406 164.578 C 119.727 163.906 118.043 163.297 116.563 162.895 C 113.805 162.152 110.641 155.547 109.902 154.539 C 108.961 153.121 108.555 150.898 108.555 148.473 C 108.555 144.699 109.43 140.453 110.371 138.23 C 111.988 134.457 118.109 127.988 120.602 126.91 C 123.023 125.832 133.52 128.324 134.73 128.66 L 134.797 128.66 C 135 128.797 140.047 130.816 143.613 133.918 C 147.313 137.086 147.176 144.16 147.176 144.43 L 147.176 144.496 Z M 147.176 144.496" fill-opacity="1" fill-rule="nonzero"/><path fill="#ffe7c9" d="M 93.395 153.93 C 92.32 156.426 85.859 162.488 82.094 164.176 C 79.871 165.117 75.699 165.992 71.863 165.992 C 68.031 165.992 67.156 165.59 65.809 164.645 C 64.801 163.973 63.789 163.434 62.715 162.961 C 60.359 161.816 58.207 160.805 57.465 158.043 C 57.063 156.559 56.457 154.875 55.785 153.191 C 54.773 150.629 53.832 148.203 53.832 146.52 C 53.832 144.699 58.34 136.68 59.281 135.738 C 62.176 132.906 67.762 129.336 69.914 128.594 C 70.453 128.391 74.895 127.516 75.836 127.383 L 75.902 127.383 C 76.172 127.383 83.234 127.246 86.398 130.953 C 89.492 134.523 91.512 139.512 91.578 139.781 C 91.848 141.059 94.34 151.574 93.328 154 L 93.395 153.93 Z M 93.395 153.93" fill-opacity="1" fill-rule="nonzero"/><path fill="#ffe7c9" d="M 179.641 128.73 C 179.641 128.73 168.875 130.078 165.645 134.66 C 162.414 139.242 159.117 142.004 159.52 147.461 C 159.789 151.168 160.461 156.965 160.934 157.84 C 161.406 158.715 164.434 162.152 165.777 163.297 C 168 165.254 170.961 166.063 173.785 166.668 C 176.609 167.273 178.898 167.746 182.129 167.07 C 185.359 166.398 189.262 164.512 191.953 162.625 C 193.77 161.41 195.789 160.199 196.125 158.918 C 197.066 155.75 198.949 153.461 198.008 146.52 C 197.672 144.094 196.594 140.59 196.594 140.59 C 196.594 140.59 193.77 135.602 192.488 133.781 C 191.953 133.043 189.867 131.223 187.309 130.277 C 183.742 128.93 179.504 128.594 179.504 128.594 L 179.641 128.73 Z M 179.641 128.73" fill-opacity="1" fill-rule="nonzero"/></svg>