<svg xmlns="http://www.w3.org/2000/svg" xmlns:xlink="http://www.w3.org/1999/xlink" width="500" zoomAndPan="magnify" viewBox="0 0 375 374.999991" height="500" preserveAspectRatio="xMidYMid meet" version="1.0"><path fill="#70573b" d="M 308.996094 41.832031 C 309.589844 41.242188 310.230469 40.71875 310.925781 40.257812 C 311.621094 39.792969 312.355469 39.402344 313.125 39.085938 C 313.894531 38.765625 314.691406 38.527344 315.507812 38.363281 C 316.328125 38.203125 317.152344 38.121094 317.988281 38.121094 C 318.820312 38.121094 319.648438 38.203125 320.464844 38.363281 C 321.285156 38.527344 322.078125 38.765625 322.847656 39.085938 C 323.621094 39.402344 324.351562 39.792969 325.046875 40.257812 C 325.742188 40.71875 326.386719 41.242188 326.976562 41.832031 C 327.574219 42.429688 328.109375 43.085938 328.582031 43.789062 C 329.050781 44.496094 329.449219 45.238281 329.773438 46.023438 C 330.097656 46.808594 330.34375 47.613281 330.507812 48.445312 C 330.671875 49.277344 330.757812 50.117188 330.757812 50.964844 C 330.757812 51.8125 330.671875 52.652344 330.507812 53.484375 C 330.34375 54.316406 330.097656 55.125 329.773438 55.910156 C 329.449219 56.691406 329.050781 57.4375 328.582031 58.144531 C 328.109375 58.847656 327.574219 59.5 326.976562 60.101562 L 301.914062 85.375 L 326.976562 110.789062 C 327.574219 111.382812 328.109375 112.027344 328.582031 112.726562 C 329.050781 113.425781 329.449219 114.164062 329.773438 114.945312 C 330.097656 115.722656 330.34375 116.523438 330.507812 117.351562 C 330.671875 118.175781 330.757812 119.011719 330.757812 119.855469 C 330.757812 120.699219 330.671875 121.53125 330.507812 122.359375 C 330.34375 123.1875 330.097656 123.988281 329.773438 124.765625 C 329.449219 125.542969 329.050781 126.285156 328.582031 126.984375 C 328.109375 127.683594 327.574219 128.328125 326.976562 128.921875 C 326.394531 129.523438 325.757812 130.0625 325.066406 130.539062 C 324.375 131.011719 323.640625 131.414062 322.871094 131.742188 C 322.097656 132.070312 321.300781 132.316406 320.476562 132.484375 C 319.65625 132.648438 318.824219 132.734375 317.988281 132.734375 C 317.148438 132.734375 316.316406 132.648438 315.496094 132.484375 C 314.675781 132.316406 313.878906 132.070312 313.105469 131.742188 C 312.332031 131.414062 311.601562 131.011719 310.910156 130.539062 C 310.21875 130.0625 309.582031 129.523438 308.996094 128.921875 L 283.800781 103.644531 L 258.738281 128.921875 C 258.148438 129.523438 257.503906 130.0625 256.808594 130.539062 C 256.109375 131.011719 255.371094 131.414062 254.59375 131.742188 C 253.816406 132.070312 253.011719 132.316406 252.1875 132.484375 C 251.359375 132.648438 250.523438 132.734375 249.679688 132.734375 C 248.835938 132.734375 248 132.648438 247.175781 132.484375 C 246.347656 132.316406 245.542969 132.070312 244.765625 131.742188 C 243.988281 131.414062 243.25 131.011719 242.554688 130.539062 C 241.855469 130.0625 241.210938 129.523438 240.621094 128.921875 C 240.039062 128.320312 239.515625 127.667969 239.058594 126.964844 C 238.601562 126.261719 238.214844 125.523438 237.898438 124.746094 C 237.585938 123.96875 237.347656 123.171875 237.1875 122.347656 C 237.023438 121.523438 236.945312 120.695312 236.945312 119.855469 C 236.945312 119.015625 237.023438 118.1875 237.1875 117.363281 C 237.347656 116.539062 237.585938 115.738281 237.898438 114.964844 C 238.214844 114.1875 238.601562 113.445312 239.058594 112.746094 C 239.515625 112.042969 240.039062 111.390625 240.621094 110.789062 L 265.683594 85.375 L 240.621094 60.101562 C 240.039062 59.492188 239.515625 58.835938 239.058594 58.125 C 238.601562 57.417969 238.214844 56.671875 237.898438 55.890625 C 237.582031 55.105469 237.347656 54.300781 237.183594 53.472656 C 237.023438 52.644531 236.945312 51.808594 236.945312 50.964844 C 236.945312 50.121094 237.023438 49.285156 237.183594 48.457031 C 237.347656 47.628906 237.582031 46.824219 237.898438 46.042969 C 238.214844 45.257812 238.601562 44.515625 239.058594 43.804688 C 239.515625 43.097656 240.039062 42.4375 240.621094 41.832031 C 241.21875 41.242188 241.871094 40.71875 242.570312 40.253906 C 243.269531 39.792969 244.007812 39.402344 244.785156 39.085938 C 245.5625 38.765625 246.363281 38.527344 247.1875 38.363281 C 248.007812 38.203125 248.839844 38.121094 249.679688 38.121094 C 250.519531 38.121094 251.351562 38.203125 252.175781 38.363281 C 252.996094 38.527344 253.796875 38.765625 254.574219 39.085938 C 255.351562 39.402344 256.089844 39.792969 256.789062 40.253906 C 257.488281 40.71875 258.140625 41.242188 258.738281 41.832031 L 283.800781 67.242188 Z M 251.382812 241.425781 C 252.183594 240.574219 253.046875 239.796875 253.980469 239.09375 C 254.914062 238.390625 255.898438 237.769531 256.9375 237.238281 C 257.976562 236.703125 259.054688 236.261719 260.167969 235.910156 C 261.28125 235.5625 262.417969 235.308594 263.574219 235.152344 C 264.734375 234.996094 265.894531 234.941406 267.0625 234.984375 C 268.230469 235.03125 269.382812 235.171875 270.527344 235.414062 C 271.667969 235.65625 272.785156 235.992188 273.867188 236.425781 C 274.953125 236.859375 275.992188 237.378906 276.988281 237.992188 L 309.542969 256.945312 C 310.347656 257.429688 311.128906 257.957031 311.878906 258.527344 C 312.628906 259.09375 313.34375 259.703125 314.03125 260.347656 C 314.714844 260.996094 315.359375 261.675781 315.96875 262.394531 C 316.582031 263.109375 317.148438 263.859375 317.679688 264.636719 C 318.207031 265.414062 318.691406 266.222656 319.132812 267.050781 C 319.574219 267.882812 319.96875 268.738281 320.316406 269.609375 C 320.667969 270.484375 320.964844 271.375 321.21875 272.285156 C 321.46875 273.191406 321.671875 274.109375 321.824219 275.035156 C 321.976562 275.964844 322.074219 276.902344 322.125 277.839844 C 322.175781 278.78125 322.175781 279.71875 322.125 280.660156 C 322.074219 281.601562 321.96875 282.535156 321.816406 283.460938 C 321.664062 284.390625 321.460938 285.308594 321.207031 286.214844 C 320.953125 287.121094 320.652344 288.011719 320.300781 288.886719 C 319.953125 289.761719 319.554688 290.613281 319.113281 291.441406 C 318.671875 292.273438 318.183594 293.078125 317.65625 293.855469 C 317.125 294.632812 316.554688 295.378906 315.945312 296.097656 L 291.699219 321.921875 C 289.839844 324.117188 287.65625 325.925781 285.148438 327.34375 C 282.640625 328.761719 279.96875 329.699219 277.125 330.164062 C 252.609375 332.636719 188.726562 330.4375 119.261719 256.808594 C 53.203125 186.613281 42.035156 127.410156 40.671875 101.3125 C 40.640625 99.472656 40.796875 97.652344 41.148438 95.851562 C 41.496094 94.046875 42.027344 92.300781 42.742188 90.605469 C 43.457031 88.914062 44.34375 87.316406 45.394531 85.808594 C 46.445312 84.304688 47.640625 82.921875 48.980469 81.667969 L 75.679688 53.09375 C 76.246094 52.523438 76.84375 51.984375 77.472656 51.476562 C 78.101562 50.972656 78.753906 50.503906 79.4375 50.074219 C 80.117188 49.644531 80.820312 49.253906 81.546875 48.902344 C 82.273438 48.550781 83.015625 48.242188 83.777344 47.972656 C 84.535156 47.707031 85.308594 47.484375 86.09375 47.304688 C 86.882812 47.125 87.675781 46.988281 88.476562 46.898438 C 89.277344 46.808594 90.082031 46.765625 90.886719 46.765625 C 91.695312 46.769531 92.496094 46.816406 93.296875 46.90625 C 94.097656 47 94.890625 47.136719 95.675781 47.320312 C 96.460938 47.5 97.234375 47.726562 97.996094 47.996094 C 98.753906 48.265625 99.496094 48.578125 100.222656 48.929688 C 100.945312 49.285156 101.648438 49.679688 102.328125 50.109375 C 103.007812 50.542969 103.660156 51.015625 104.289062 51.523438 C 104.914062 52.027344 105.511719 52.570312 106.074219 53.144531 C 106.640625 53.71875 107.171875 54.324219 107.667969 54.957031 C 108.167969 55.59375 108.625 56.253906 109.046875 56.941406 L 130.570312 87.574219 C 131.417969 88.742188 132.160156 89.976562 132.800781 91.273438 C 133.4375 92.570312 133.964844 93.910156 134.378906 95.292969 C 134.792969 96.679688 135.085938 98.089844 135.261719 99.523438 C 135.4375 100.957031 135.492188 102.394531 135.421875 103.839844 C 135.355469 105.28125 135.167969 106.710938 134.859375 108.121094 C 134.550781 109.535156 134.125 110.910156 133.585938 112.25 C 133.042969 113.589844 132.394531 114.875 131.636719 116.105469 C 130.878906 117.335938 130.023438 118.496094 129.070312 119.582031 C 126.265625 121.890625 123.902344 124.59375 121.988281 127.683594 C 120.941406 129.476562 120.078125 131.355469 119.398438 133.316406 C 118.371094 136.34375 117.730469 139.449219 117.476562 142.632812 C 117.222656 145.820312 117.363281 148.984375 117.902344 152.136719 C 120.082031 167.382812 130.160156 188.125 156.175781 215.738281 C 182.191406 243.347656 201.804688 254.199219 216.785156 256.671875 C 219.914062 257.257812 223.0625 257.410156 226.230469 257.132812 C 229.398438 256.851562 232.472656 256.148438 235.445312 255.023438 C 237.382812 254.289062 239.199219 253.324219 240.894531 252.140625 C 247.023438 247.605469 245.253906 248.019531 251.382812 241.425781 Z M 232.859375 223.703125 L 225.914062 231.121094 C 224.234375 231.523438 222.550781 231.523438 220.871094 231.121094 C 214.0625 230.023438 199.214844 223.980469 174.699219 198.015625 C 150.320312 172.054688 144.324219 156.121094 143.234375 148.289062 C 142.765625 146.160156 142.859375 144.054688 143.507812 141.972656 L 143.507812 141.832031 L 147.730469 137.4375 C 148.707031 136.355469 149.636719 135.230469 150.519531 134.066406 C 151.402344 132.90625 152.234375 131.707031 153.015625 130.476562 C 153.796875 129.242188 154.523438 127.980469 155.199219 126.6875 C 155.871094 125.390625 156.492188 124.070312 157.054688 122.726562 C 157.617188 121.378906 158.121094 120.011719 158.570312 118.621094 C 159.019531 117.234375 159.40625 115.828125 159.734375 114.40625 C 160.066406 112.984375 160.332031 111.550781 160.542969 110.109375 C 160.75 108.664062 160.898438 107.214844 160.984375 105.757812 C 161.070312 104.300781 161.09375 102.84375 161.054688 101.382812 C 161.019531 99.925781 160.921875 98.46875 160.761719 97.019531 C 160.601562 95.570312 160.378906 94.128906 160.097656 92.695312 C 159.816406 91.265625 159.476562 89.847656 159.074219 88.445312 C 158.671875 87.039062 158.214844 85.65625 157.695312 84.292969 C 157.179688 82.929688 156.605469 81.589844 155.972656 80.273438 C 155.34375 78.957031 154.65625 77.671875 153.917969 76.410156 C 153.179688 75.152344 152.386719 73.929688 151.542969 72.738281 L 130.023438 41.96875 C 112.726562 17.378906 78.128906 13.121094 57.15625 35.375 L 30.320312 63.808594 C 27.800781 66.363281 25.5625 69.144531 23.605469 72.15625 C 21.652344 75.164062 20.015625 78.339844 18.707031 81.679688 C 17.394531 85.023438 16.433594 88.460938 15.820312 92 C 15.207031 95.535156 14.957031 99.097656 15.066406 102.683594 C 16.835938 134.554688 30.1875 199.664062 100.742188 274.667969 C 176.332031 354.890625 248.386719 358.875 279.578125 355.851562 C 282.515625 355.488281 285.398438 354.863281 288.226562 353.972656 C 291.050781 353.085938 293.773438 351.949219 296.390625 350.5625 C 299.007812 349.179688 301.480469 347.570312 303.804688 345.734375 C 306.128906 343.898438 308.269531 341.867188 310.222656 339.640625 L 334.46875 313.953125 C 335.109375 313.242188 335.726562 312.515625 336.328125 311.769531 C 336.925781 311.023438 337.503906 310.261719 338.0625 309.484375 C 338.617188 308.707031 339.152344 307.914062 339.667969 307.109375 C 340.179688 306.300781 340.671875 305.480469 341.140625 304.644531 C 341.609375 303.8125 342.054688 302.964844 342.472656 302.105469 C 342.894531 301.246094 343.292969 300.378906 343.667969 299.496094 C 344.039062 298.617188 344.390625 297.726562 344.710938 296.824219 C 345.035156 295.925781 345.335938 295.015625 345.609375 294.101562 C 345.882812 293.183594 346.132812 292.261719 346.355469 291.328125 C 346.578125 290.398438 346.773438 289.464844 346.945312 288.523438 C 347.117188 287.582031 347.261719 286.636719 347.382812 285.6875 C 347.5 284.738281 347.59375 283.785156 347.660156 282.832031 C 347.726562 281.878906 347.765625 280.921875 347.78125 279.964844 C 347.792969 279.007812 347.78125 278.050781 347.742188 277.097656 C 347.703125 276.140625 347.636719 275.1875 347.542969 274.234375 C 347.453125 273.28125 347.335938 272.332031 347.191406 271.386719 C 347.046875 270.441406 346.875 269.5 346.679688 268.566406 C 346.484375 267.628906 346.261719 266.699219 346.011719 265.773438 C 345.765625 264.851562 345.492188 263.933594 345.195312 263.023438 C 344.894531 262.117188 344.570312 261.214844 344.222656 260.324219 C 343.875 259.433594 343.503906 258.554688 343.105469 257.683594 C 342.710938 256.8125 342.289062 255.953125 341.84375 255.105469 C 341.398438 254.257812 340.933594 253.425781 340.441406 252.601562 C 339.953125 251.78125 339.441406 250.972656 338.90625 250.179688 C 338.371094 249.386719 337.8125 248.609375 337.234375 247.847656 C 336.65625 247.085938 336.058594 246.339844 335.441406 245.609375 C 334.820312 244.882812 334.183594 244.167969 333.523438 243.476562 C 332.863281 242.78125 332.1875 242.105469 331.492188 241.449219 C 330.796875 240.792969 330.082031 240.15625 329.351562 239.539062 C 328.621094 238.921875 327.875 238.324219 327.109375 237.75 C 326.34375 237.175781 325.566406 236.621094 324.773438 236.085938 C 323.976562 235.554688 323.167969 235.042969 322.347656 234.554688 L 289.792969 215.601562 C 288.679688 214.9375 287.539062 214.320312 286.375 213.753906 C 285.207031 213.1875 284.019531 212.671875 282.8125 212.203125 C 281.601562 211.738281 280.375 211.324219 279.128906 210.964844 C 277.886719 210.601562 276.628906 210.292969 275.359375 210.039062 C 274.085938 209.78125 272.808594 209.582031 271.519531 209.4375 C 270.230469 209.289062 268.941406 209.199219 267.644531 209.160156 C 266.347656 209.125 265.054688 209.140625 263.761719 209.214844 C 262.464844 209.289062 261.175781 209.417969 259.894531 209.597656 C 258.613281 209.78125 257.339844 210.019531 256.074219 210.308594 C 254.8125 210.601562 253.5625 210.945312 252.328125 211.339844 C 251.097656 211.738281 249.882812 212.1875 248.683594 212.6875 C 247.488281 213.1875 246.316406 213.734375 245.167969 214.335938 C 244.019531 214.933594 242.898438 215.582031 241.804688 216.277344 C 240.707031 216.972656 239.644531 217.710938 238.613281 218.496094 C 237.582031 219.28125 236.585938 220.109375 235.625 220.976562 C 234.664062 221.847656 233.742188 222.757812 232.859375 223.703125 Z M 232.859375 223.703125 " fill-opacity="1" fill-rule="nonzero"/></svg>