<?xml version="1.0" encoding="iso-8859-1"?>
<!-- Uploaded to: SVG Repo, www.svgrepo.com, Generator: SVG Repo Mixer Tools -->
<svg height="800px" width="800px" version="1.1" id="Layer_1" xmlns="http://www.w3.org/2000/svg" xmlns:xlink="http://www.w3.org/1999/xlink" 
	 viewBox="0 0 512 512" xml:space="preserve">
<path style="fill:#FFCB5B;" d="M22.64,72.001h465.359c13.255,0,24,10.745,24,24V417.36c0,12.503-10.136,22.64-22.64,22.64l0,0H22.64
	C10.137,440,0,429.864,0,417.36l0,0V94.64C0,82.137,10.137,72.001,22.64,72.001z"/>
<path style="fill:#FFDB6F;" d="M503.999,108.561L280,234.72c-14.606,8.21-32.435,8.21-47.04,0L8,108.561
	c-4.97-2.869-8.023-8.181-8-13.92l0,0C0,82.137,10.136,72,22.64,72h466.72C501.863,72,512,82.136,512,94.64l0,0l0,0
	C512.022,100.379,508.97,105.691,503.999,108.561z"/>
<path style="fill:#F7B84E;" d="M511.999,95.201c-0.173,5.538-3.2,10.592-8,13.36L280,234.72c-14.606,8.21-32.435,8.21-47.04,0
	L8,108.561c-4.8-2.768-7.827-7.822-8-13.36l0,0v0.8v16c-0.011,5.528,2.832,10.67,7.52,13.6l223.039,139.36l0,0
	c15.392,8.787,25.047,25.002,25.44,42.72v51.76c0,26.819-21.741,48.56-48.56,48.56H72.001c-17.674,0-32,14.327-32,32H489.36
	c12.503,0,22.64-10.136,22.64-22.64l0,0V96.001C511.999,96.001,511.999,95.521,511.999,95.201L511.999,95.201z"/>
<path style="fill:#F19920;" d="M279.52,234.8c-14.606,8.21-32.435,8.21-47.04,0l-224-125.84c0.827,0.782,1.71,1.504,2.64,2.16
	l219.36,136c15.507,9.629,35.133,9.629,50.639,0l219.36-136c0.93-0.656,1.812-1.378,2.64-2.16L279.52,234.8z"/>
<g>
	<path style="fill:#FFE278;" d="M211.92,177.041L148.88,142c-7.733-4.276-10.535-14.011-6.259-21.744
		c2.862-5.176,8.346-8.351,14.259-8.256H160c4.418,0,8-3.582,8-8c0-4.418-3.582-8-8-8H64.001c-2.869-0.011-5.525,1.515-6.96,4
		c-2.143,3.864-0.749,8.733,3.114,10.877c0.002,0.001,0.004,0.002,0.006,0.003l144,80c3.543,2.639,8.556,1.905,11.194-1.639
		c2.639-3.543,1.905-8.556-1.639-11.194C213.162,177.635,212.559,177.297,211.92,177.041z"/>
	<path style="fill:#FFE278;" d="M192,96.001h48c4.418,0,8,3.582,8,8l0,0c0,4.418-3.582,8-8,8h-48c-4.418,0-8-3.582-8-8l0,0
		C184,99.582,187.582,96.001,192,96.001z"/>
</g>
<g>
	<path style="fill:#B06328;" d="M400,296c-26.509,0-48,21.49-48,48c0,26.509,21.49,48,48,48s48-21.49,48-48
		C448,317.491,426.509,296,400,296z M400,376.001c-17.674,0-32-14.327-32-32c0-17.673,14.327-32,32-32c17.672,0,32,14.327,32,32
		S417.672,376.001,400,376.001z"/>
	<path style="fill:#B06328;" d="M322.96,369.681c-11.295,8.335-26.704,8.335-37.999,0c-17.148-13.001-40.852-13.001-58,0
		c-3.36,2.869-3.758,7.919-0.889,11.278c2.743,3.213,7.512,3.739,10.889,1.201c11.295-8.335,26.704-8.335,37.999,0
		c17.148,13.001,40.852,13.001,58,0c3.36-2.869,3.758-7.919,0.889-11.278C331.106,367.669,326.337,367.143,322.96,369.681z"/>
	<path style="fill:#B06328;" d="M322.96,337.68c-11.295,8.335-26.704,8.335-37.999,0c-17.148-13.001-40.852-13.001-58,0
		c-3.36,2.869-3.758,7.919-0.889,11.278c2.743,3.213,7.512,3.739,10.889,1.201c11.295-8.335,26.704-8.335,37.999,0
		c17.148,13.001,40.852,13.001,58,0c3.532-2.653,4.245-7.669,1.591-11.201c-2.653-3.532-7.669-4.245-11.201-1.591
		C323.216,337.468,323.086,337.572,322.96,337.68z"/>
	<path style="fill:#B06328;" d="M322.96,305.68c-11.295,8.335-26.704,8.335-37.999,0c-17.148-13.001-40.852-13.001-58,0
		c-3.36,2.869-3.758,7.919-0.889,11.278c2.743,3.213,7.512,3.739,10.889,1.201c11.295-8.335,26.704-8.335,37.999,0
		c17.148,13.001,40.852,13.001,58,0c3.532-2.653,4.245-7.669,1.591-11.201c-2.653-3.532-7.669-4.245-11.201-1.591
		C323.216,305.468,323.086,305.573,322.96,305.68z"/>
	<circle style="fill:#B06328;" cx="399.997" cy="343.924" r="16"/>
</g>
</svg>