<svg width="20" height="19" viewBox="0 0 20 19" fill="none" xmlns="http://www.w3.org/2000/svg">
<path d="M5.99902 6H13.999M5.99902 10H11.999M15.999 1C16.7947 1 17.5577 1.31607 18.1203 1.87868C18.683 2.44129 18.999 3.20435 18.999 4V12C18.999 12.7956 18.683 13.5587 18.1203 14.1213C17.5577 14.6839 16.7947 15 15.999 15H10.999L5.99902 18V15H3.99902C3.20337 15 2.44031 14.6839 1.8777 14.1213C1.31509 13.5587 0.999023 12.7956 0.999023 12V4C0.999023 3.20435 1.31509 2.44129 1.8777 1.87868C2.44031 1.31607 3.20337 1 3.99902 1H15.999Z" stroke="white" stroke-width="0.845876" stroke-linecap="round" stroke-linejoin="round"/>
</svg>
