<?xml version="1.0" encoding="utf-8"?>
<svg viewBox="6.741 52.824 326.885 278.25" xmlns="http://www.w3.org/2000/svg">
  <path d="M 80.848 150.495 L 191.944 150.495 M 80.848 209.345 L 164.17 209.345 M 219.718 76.932 C 230.759 76.932 241.354 81.581 249.172 89.865 C 256.99 98.134 261.379 109.358 261.379 121.069 L 261.379 238.771 C 261.379 250.482 256.99 261.707 249.172 269.976 C 241.354 278.259 230.759 282.908 219.718 282.908 L 150.283 282.908 L 80.848 327.046 L 80.848 282.908 L 53.073 282.908 C 42.019 282.908 31.424 278.259 23.606 269.976 C 15.802 261.707 11.413 250.482 11.413 238.771 L 11.413 121.069 C 11.413 109.358 15.802 98.134 23.606 89.865 C 31.424 81.581 42.019 76.932 53.073 76.932 L 219.718 76.932 Z" stroke="white" stroke-width="0.845876" stroke-linecap="round" stroke-linejoin="round" transform="matrix(0.9999999999999999, 0, 0, 0.9999999999999999, 0, 0)"/>
  <ellipse style="fill: rgb(251, 61, 61); stroke: rgb(255, 255, 255); stroke-width: 5px;" cx="259.74" cy="126.216" rx="69.474" ry="70.048" transform="matrix(0.9999999999999999, 0, 0, 0.9999999999999999, 0, 0)"/>
  <rect x="53.755" y="145.591" width="136.079" height="10.909" style="fill: rgb(255, 255, 255); stroke: rgb(255, 255, 255);" transform="matrix(0.9999999999999999, 0, 0, 0.9999999999999999, 0, 0)"/>
  <rect x="75.574" y="206.453" width="92.442" height="10.909" style="fill: rgb(255, 255, 255); stroke: rgb(255, 255, 255);" transform="matrix(0.9999999999999999, 0, 0, 0.9999999999999999, 0, 0)"/>
</svg>