<svg xmlns="http://www.w3.org/2000/svg" xmlns:xlink="http://www.w3.org/1999/xlink" width="500" zoomAndPan="magnify" viewBox="0 0 375 374.999991" height="500" preserveAspectRatio="xMidYMid meet" version="1.0"><defs><clipPath id="79907d5b59"><path d="M 26.785156 22.4375 L 356.785156 22.4375 L 356.785156 352.4375 L 26.785156 352.4375 Z M 26.785156 22.4375 " clip-rule="nonzero"/></clipPath></defs><g clip-path="url(#79907d5b59)"><path d="M 302.941406 22.433594 L 80.746094 22.433594 C 50.945312 22.433594 26.789062 46.59375 26.789062 76.390625 L 26.789062 298.597656 C 26.789062 328.398438 50.945312 352.554688 80.746094 352.554688 L 302.953125 352.554688 C 332.742188 352.554688 356.898438 328.398438 356.898438 298.605469 L 356.898438 76.390625 C 356.898438 46.59375 332.742188 22.433594 302.941406 22.433594 Z M 325.394531 287.390625 C 325.394531 288.59375 325.332031 289.789062 325.203125 290.984375 C 325.09375 292.007812 324.9375 293.019531 324.734375 294.027344 C 324.53125 295.035156 324.285156 296.03125 323.992188 297.015625 C 323.695312 298 323.359375 298.96875 322.976562 299.921875 C 322.59375 300.875 322.167969 301.808594 321.703125 302.722656 C 321.234375 303.636719 320.726562 304.527344 320.175781 305.394531 C 319.628906 306.261719 319.039062 307.101562 318.414062 307.917969 C 317.785156 308.730469 317.125 309.515625 316.425781 310.265625 C 315.730469 311.019531 314.996094 311.742188 314.234375 312.425781 C 313.46875 313.113281 312.675781 313.761719 311.851562 314.375 C 311.027344 314.988281 310.179688 315.5625 309.304688 316.101562 C 308.425781 316.636719 307.527344 317.128906 306.605469 317.582031 C 305.683594 318.035156 304.746094 318.449219 303.785156 318.816406 C 302.828125 319.183594 301.851562 319.503906 300.863281 319.78125 C 299.875 320.0625 298.875 320.292969 297.867188 320.480469 C 296.855469 320.667969 295.839844 320.804688 294.816406 320.898438 C 293.796875 320.992188 292.769531 321.039062 291.742188 321.039062 L 91.953125 321.039062 C 90.851562 321.039062 89.753906 320.984375 88.65625 320.878906 C 87.558594 320.769531 86.472656 320.609375 85.390625 320.390625 C 84.308594 320.175781 83.242188 319.910156 82.1875 319.589844 C 81.132812 319.269531 80.097656 318.898438 79.078125 318.476562 C 78.058594 318.054688 77.066406 317.585938 76.09375 317.066406 C 75.121094 316.546875 74.175781 315.980469 73.261719 315.367188 C 72.34375 314.753906 71.460938 314.101562 70.609375 313.402344 C 69.757812 312.703125 68.941406 311.960938 68.160156 311.183594 C 67.382812 310.402344 66.644531 309.589844 65.945312 308.738281 C 65.246094 307.882812 64.589844 307 63.976562 306.085938 C 63.363281 305.167969 62.796875 304.222656 62.277344 303.25 C 61.757812 302.28125 61.289062 301.285156 60.867188 300.265625 C 60.445312 299.25 60.074219 298.210938 59.753906 297.15625 C 59.433594 296.101562 59.167969 295.035156 58.953125 293.953125 C 58.738281 292.875 58.574219 291.785156 58.46875 290.6875 C 58.359375 289.589844 58.304688 288.492188 58.304688 287.390625 L 58.304688 87.601562 C 58.304688 86.5 58.359375 85.398438 58.46875 84.300781 C 58.574219 83.207031 58.738281 82.117188 58.953125 81.035156 C 59.167969 79.953125 59.433594 78.886719 59.753906 77.832031 C 60.074219 76.777344 60.445312 75.742188 60.867188 74.722656 C 61.289062 73.707031 61.757812 72.710938 62.277344 71.738281 C 62.796875 70.765625 63.363281 69.820312 63.976562 68.90625 C 64.589844 67.988281 65.246094 67.105469 65.945312 66.253906 C 66.644531 65.402344 67.382812 64.585938 68.160156 63.808594 C 68.941406 63.027344 69.757812 62.289062 70.609375 61.589844 C 71.460938 60.890625 72.34375 60.234375 73.261719 59.621094 C 74.175781 59.007812 75.121094 58.445312 76.09375 57.925781 C 77.066406 57.40625 78.058594 56.933594 79.078125 56.511719 C 80.097656 56.089844 81.132812 55.71875 82.1875 55.398438 C 83.242188 55.078125 84.308594 54.8125 85.390625 54.597656 C 86.472656 54.382812 87.558594 54.222656 88.65625 54.113281 C 89.753906 54.003906 90.851562 53.949219 91.953125 53.949219 L 291.742188 53.949219 C 292.847656 53.949219 293.945312 54.003906 295.042969 54.113281 C 296.140625 54.222656 297.226562 54.382812 298.308594 54.597656 C 299.390625 54.8125 300.457031 55.078125 301.511719 55.398438 C 302.566406 55.71875 303.601562 56.089844 304.621094 56.511719 C 305.640625 56.933594 306.632812 57.40625 307.605469 57.925781 C 308.578125 58.445312 309.523438 59.007812 310.4375 59.621094 C 311.355469 60.234375 312.238281 60.890625 313.089844 61.589844 C 313.941406 62.289062 314.757812 63.027344 315.539062 63.808594 C 316.316406 64.585938 317.054688 65.402344 317.753906 66.253906 C 318.453125 67.105469 319.109375 67.988281 319.722656 68.90625 C 320.335938 69.820312 320.902344 70.765625 321.421875 71.738281 C 321.941406 72.710938 322.410156 73.707031 322.832031 74.722656 C 323.253906 75.742188 323.625 76.777344 323.945312 77.832031 C 324.265625 78.886719 324.53125 79.953125 324.746094 81.035156 C 324.960938 82.117188 325.125 83.207031 325.230469 84.300781 C 325.339844 85.398438 325.394531 86.5 325.394531 87.601562 Z M 325.394531 287.390625 " fill-opacity="1" fill-rule="nonzero"/></g><path d="M 187.390625 244.464844 C 199.609375 257.921875 203.796875 277.042969 197.65625 294.15625 C 194.445312 303.125 188.339844 312.523438 177.445312 321.039062 L 129.503906 321.039062 C 140.398438 312.523438 146.503906 303.125 149.71875 294.15625 C 155.855469 277.042969 151.675781 257.921875 139.449219 244.464844 L 96.402344 197.066406 C 95.824219 196.425781 95.308594 195.734375 94.859375 194.996094 C 94.40625 194.257812 94.03125 193.484375 93.730469 192.675781 C 93.425781 191.863281 93.203125 191.03125 93.058594 190.179688 C 92.914062 189.328125 92.851562 188.46875 92.871094 187.605469 C 92.886719 186.738281 92.988281 185.886719 93.171875 185.039062 C 93.351562 184.195312 93.613281 183.375 93.949219 182.578125 C 94.285156 181.78125 94.695312 181.023438 95.179688 180.304688 C 95.660156 179.585938 96.203125 178.921875 96.8125 178.308594 L 141.722656 132.996094 C 142.289062 132.421875 142.847656 131.832031 143.378906 131.222656 C 171.933594 98.144531 151.539062 69.519531 134.484375 53.949219 L 182.433594 53.949219 C 198.710938 68.824219 218.035156 95.59375 194.878906 126.78125 C 192.824219 129.511719 190.585938 132.085938 188.164062 134.503906 L 145.535156 177.515625 C 144.875 178.183594 144.28125 178.90625 143.757812 179.6875 C 143.234375 180.46875 142.789062 181.289062 142.421875 182.15625 C 142.054688 183.019531 141.773438 183.914062 141.574219 184.832031 C 141.378906 185.75 141.269531 186.679688 141.25 187.621094 C 141.230469 188.558594 141.296875 189.492188 141.453125 190.417969 C 141.613281 191.347656 141.855469 192.25 142.183594 193.128906 C 142.511719 194.011719 142.921875 194.851562 143.410156 195.652344 C 143.902344 196.457031 144.460938 197.207031 145.09375 197.902344 Z M 187.390625 244.464844 " fill-opacity="1" fill-rule="nonzero"/><path d="M 325.203125 290.988281 C 325.023438 292.628906 324.726562 294.25 324.3125 295.847656 C 323.894531 297.449219 323.367188 299.007812 322.71875 300.53125 C 322.074219 302.050781 321.320312 303.515625 320.460938 304.925781 C 319.597656 306.335938 318.640625 307.675781 317.582031 308.945312 C 316.523438 310.214844 315.375 311.398438 314.144531 312.5 C 312.910156 313.597656 311.605469 314.601562 310.222656 315.511719 C 308.84375 316.417969 307.402344 317.21875 305.902344 317.917969 C 304.40625 318.613281 302.863281 319.195312 301.277344 319.664062 L 186.5625 201.65625 C 186.113281 201.195312 185.691406 200.710938 185.289062 200.207031 C 184.890625 199.703125 184.515625 199.179688 184.164062 198.640625 C 183.816406 198.097656 183.496094 197.542969 183.199219 196.96875 C 182.90625 196.398438 182.640625 195.8125 182.40625 195.210938 C 182.171875 194.613281 181.964844 194.003906 181.789062 193.386719 C 181.613281 192.765625 181.46875 192.140625 181.355469 191.503906 C 181.242188 190.871094 181.160156 190.234375 181.109375 189.59375 C 181.058594 188.949219 181.039062 188.308594 181.050781 187.664062 C 181.066406 187.019531 181.109375 186.378906 181.1875 185.742188 C 181.265625 185.101562 181.371094 184.46875 181.511719 183.839844 C 181.652344 183.210938 181.820312 182.589844 182.019531 181.980469 C 182.222656 181.367188 182.453125 180.765625 182.710938 180.179688 C 182.972656 179.589844 183.261719 179.015625 183.578125 178.453125 C 183.894531 177.894531 184.238281 177.351562 184.609375 176.824219 C 184.980469 176.300781 185.375 175.792969 185.796875 175.304688 C 186.21875 174.816406 186.660156 174.351562 187.128906 173.910156 L 238.867188 124.855469 C 267.917969 94.976562 243.59375 66.902344 228.40625 53.953125 L 267.273438 53.953125 C 308.457031 96.597656 278.613281 128.773438 278.613281 128.773438 L 233.953125 172.988281 C 233.5625 173.375 233.191406 173.777344 232.839844 174.203125 C 232.492188 174.625 232.160156 175.0625 231.851562 175.519531 C 231.542969 175.972656 231.257812 176.445312 230.996094 176.925781 C 230.734375 177.410156 230.496094 177.90625 230.28125 178.410156 C 230.066406 178.917969 229.878906 179.433594 229.714844 179.957031 C 229.550781 180.484375 229.414062 181.015625 229.300781 181.554688 C 229.1875 182.089844 229.101562 182.632812 229.042969 183.179688 C 228.984375 183.726562 228.953125 184.277344 228.949219 184.824219 C 228.941406 185.375 228.964844 185.925781 229.011719 186.472656 C 229.058594 187.019531 229.136719 187.5625 229.234375 188.105469 C 229.335938 188.644531 229.464844 189.179688 229.617188 189.707031 C 229.769531 190.234375 229.949219 190.753906 230.15625 191.265625 C 230.359375 191.773438 230.585938 192.273438 230.839844 192.761719 C 231.09375 193.25 231.367188 193.726562 231.667969 194.1875 C 231.96875 194.648438 232.289062 195.09375 232.628906 195.523438 C 232.972656 195.953125 233.335938 196.367188 233.71875 196.761719 Z M 325.203125 290.988281 " fill-opacity="1" fill-rule="nonzero"/></svg>