<?xml version="1.0" encoding="utf-8"?><svg version="1.1" id="Layer_1" xmlns="http://www.w3.org/2000/svg" xmlns:xlink="http://www.w3.org/1999/xlink" x="0px" y="0px" viewBox="0 0 30 30" style="enable-background:new 0 0 122.88 29.77" xml:space="preserve"><style type="text/css">.st0{fill-rule:evenodd;clip-rule:evenodd;fill:#009EE3;} .st1{fill-rule:evenodd;clip-rule:evenodd;fill:#113984;} .st2{fill-rule:evenodd;clip-rule:evenodd;fill:#172C70;}</style><g>
<path xmlns="http://www.w3.org/2000/svg" class="st0" d="M10.72,7.01h8.4c4.51,0,6.21,2.28,5.94,5.64c-0.43,5.54-3.78,8.6-8.22,8.6H14.6c-0.61,0-1.02,0.4-1.18,1.5 l-0.95,6.35c-0.06,0.41-0.28,0.65-0.6,0.68H6.59c-0.5,0-0.67-0.38-0.54-1.2L9.26,8.21C9.39,7.4,9.83,7.01,10.72,7.01L10.72,7.01z"/>
<path xmlns="http://www.w3.org/2000/svg" class="st1" d="M5.47,0h8.41c2.37,0,5.18,0.08,7.05,1.73c1.25,1.11,1.91,2.87,1.76,4.77c-0.52,6.42-4.35,10.01-9.5,10.01H9.04 c-0.71,0-1.17,0.47-1.37,1.73l-1.16,7.37c-0.08,0.48-0.28,0.76-0.65,0.79H0.68c-0.57,0-0.78-0.43-0.63-1.39L3.78,1.4 C3.93,0.45,4.45,0,5.47,0L5.47,0z"/>
<path xmlns="http://www.w3.org/2000/svg" class="st2" d="M7.79,17.5l1.47-9.29c0.13-0.81,0.57-1.21,1.46-1.21h8.4c1.39,0,2.51,0.22,3.39,0.62 c-0.84,5.71-4.54,8.89-9.38,8.89H9C8.44,16.51,8.04,16.79,7.79,17.5L7.79,17.5z"/>
</g></svg>