<?xml version="1.0" encoding="utf-8"?>
<svg xmlns="http://www.w3.org/2000/svg" width="500" zoomAndPan="magnify" viewBox="26.075 24.178 346.554 347.503" height="500" preserveAspectRatio="none" version="1.0" xmlns:bx="https://boxy-svg.com"><defs><clipPath id="66d02e5c7c"><path d="M 28.429688 27.324219 L 371 27.324219 L 371 370 L 28.429688 370 Z M 28.429688 27.324219 " clip-rule="nonzero"/></clipPath><bx:export><bx:file format="svg"/></bx:export></defs><g clip-path="url(#66d02e5c7c)"><path fill="#b1cbea" d="M 199.617188 369.699219 C 153.890625 369.699219 110.902344 351.890625 78.566406 319.558594 C 46.238281 287.222656 28.429688 244.238281 28.429688 198.511719 C 28.429688 152.785156 46.238281 109.796875 78.566406 77.460938 C 110.902344 45.128906 153.890625 27.324219 199.617188 27.324219 C 245.34375 27.324219 288.328125 45.128906 320.664062 77.460938 C 352.996094 109.796875 370.804688 152.785156 370.804688 198.511719 C 370.804688 244.238281 352.996094 287.222656 320.664062 319.558594 C 288.335938 351.894531 245.34375 369.699219 199.617188 369.699219 Z M 199.617188 53.449219 C 119.628906 53.449219 54.554688 118.527344 54.554688 198.511719 C 54.554688 278.5 119.632812 343.570312 199.617188 343.570312 C 279.605469 343.570312 344.675781 278.496094 344.675781 198.511719 C 344.675781 118.523438 279.605469 53.449219 199.617188 53.449219 Z M 199.617188 53.449219 " fill-opacity="1" fill-rule="nonzero"/></g><path fill="#b1cbea" d="M 256.4375 264.609375 C 253.894531 264.609375 251.324219 263.867188 249.0625 262.320312 L 185.421875 218.679688 C 181.863281 216.238281 179.742188 212.199219 179.746094 207.882812 L 179.914062 101.09375 C 179.921875 93.886719 185.773438 88.050781 192.972656 88.050781 C 192.980469 88.050781 192.988281 88.050781 192.992188 88.050781 C 200.207031 88.0625 206.046875 93.921875 206.035156 101.132812 L 205.878906 201.03125 L 263.835938 240.773438 C 269.785156 244.855469 271.300781 252.984375 267.21875 258.933594 C 264.6875 262.625 260.59375 264.609375 256.4375 264.609375 Z M 256.4375 264.609375 " fill-opacity="1" fill-rule="nonzero"/></svg>