<?xml version="1.0" encoding="UTF-8" standalone="no" ?>
<!DOCTYPE svg PUBLIC "-//W3C//DTD SVG 1.1//EN" "http://www.w3.org/Graphics/SVG/1.1/DTD/svg11.dtd">
<svg xmlns="http://www.w3.org/2000/svg" xmlns:xlink="http://www.w3.org/1999/xlink" version="1.1" width="400" height="500" viewBox="0 0 400 500" xml:space="preserve">
<desc>Created with Fabric.js 5.2.4</desc>
<defs>
</defs>
<rect x="0" y="0" width="100%" height="100%" fill="transparent"></rect>
<g transform="matrix(1 0 0 1 200 250)" id="450835b7-6bc4-4753-9819-d4e8739d579a"  >
<rect style="stroke: none; stroke-width: 1; stroke-dasharray: none; stroke-linecap: butt; stroke-dashoffset: 0; stroke-linejoin: miter; stroke-miterlimit: 4; fill: rgb(255,255,255); fill-rule: nonzero; opacity: 1; visibility: hidden;" vector-effect="non-scaling-stroke"  x="-200" y="-250" rx="0" ry="0" width="400" height="500" />
</g>
<g transform="matrix(Infinity NaN NaN Infinity 0 0)" id="d334619a-62a0-4613-86d7-ebce53fbc613"  >
</g>
<g transform="matrix(0.93 0 0 0.93 200 250)"  >
<g style="" vector-effect="non-scaling-stroke"   >
		<g transform="matrix(1.33 0 0 1.33 0 0)" clip-path="url(#CLIPPATH_4)"  >
<clipPath id="CLIPPATH_4" >
	<path transform="matrix(1 0 0 1 0.19 0.53) translate(-208.5, -203.25)" id="ba373ffec9" d="M 74 37.5 L 343 37.5 L 343 369 L 74 369 Z M 74 37.5" stroke-linecap="round" />
</clipPath>
<path style="stroke: none; stroke-width: 1; stroke-dasharray: none; stroke-linecap: butt; stroke-dashoffset: 0; stroke-linejoin: miter; stroke-miterlimit: 4; fill: rgb(59,166,217); fill-rule: nonzero; opacity: 1;" vector-effect="non-scaling-stroke"  transform=" translate(-208.31, -202.72)" d="M 249.3125 368.707031 C 246.617188 368.691406 243.953125 368.394531 241.320312 367.8125 C 238.6875 367.230469 236.148438 366.378906 233.695312 365.257812 C 231.246094 364.132812 228.941406 362.765625 226.78125 361.152344 C 224.625 359.535156 222.65625 357.714844 220.886719 355.683594 C 215.992188 350.972656 213.785156 349.070312 208.414062 349.070312 C 203.046875 349.070312 200.835938 350.972656 195.925781 355.683594 C 195.046875 356.699219 194.117188 357.667969 193.132812 358.585938 C 192.152344 359.503906 191.121094 360.367188 190.046875 361.175781 C 188.96875 361.980469 187.855469 362.730469 186.699219 363.417969 C 185.542969 364.105469 184.351562 364.726562 183.128906 365.289062 C 181.90625 365.847656 180.65625 366.339844 179.378906 366.765625 C 178.105469 367.191406 176.808594 367.546875 175.496094 367.832031 C 174.179688 368.121094 172.855469 368.335938 171.515625 368.480469 C 170.179688 368.625 168.839844 368.695312 167.492188 368.695312 C 166.148438 368.695312 164.808594 368.625 163.46875 368.480469 C 162.132812 368.335938 160.808594 368.121094 159.492188 367.832031 C 158.179688 367.546875 156.882812 367.191406 155.605469 366.765625 C 154.332031 366.339844 153.082031 365.847656 151.859375 365.289062 C 150.636719 364.726562 149.445312 364.105469 148.289062 363.417969 C 147.132812 362.730469 146.015625 361.980469 144.941406 361.175781 C 143.867188 360.367188 142.835938 359.503906 141.851562 358.585938 C 140.871094 357.667969 139.9375 356.699219 139.058594 355.683594 C 134.164062 350.957031 131.941406 349.054688 126.558594 349.054688 C 124.984375 348.996094 123.457031 349.234375 121.972656 349.761719 C 120.492188 350.292969 119.160156 351.082031 117.980469 352.121094 C 116.992188 352.929688 115.949219 353.660156 114.851562 354.320312 C 113.757812 354.980469 112.621094 355.558594 111.445312 356.054688 C 110.269531 356.554688 109.0625 356.964844 107.828125 357.292969 C 106.589844 357.621094 105.339844 357.859375 104.070312 358.007812 C 102.800781 358.15625 101.527344 358.214844 100.25 358.183594 C 98.972656 358.152344 97.703125 358.03125 96.441406 357.820312 C 95.183594 357.609375 93.945312 357.3125 92.726562 356.925781 C 91.507812 356.539062 90.324219 356.066406 89.171875 355.511719 C 88.042969 354.972656 86.953125 354.359375 85.910156 353.667969 C 84.867188 352.972656 83.878906 352.210938 82.941406 351.378906 C 82.007812 350.546875 81.136719 349.652344 80.328125 348.695312 C 79.519531 347.738281 78.785156 346.730469 78.117188 345.667969 C 77.453125 344.605469 76.867188 343.503906 76.359375 342.359375 C 75.847656 341.214844 75.425781 340.039062 75.082031 338.835938 C 74.738281 337.632812 74.484375 336.410156 74.316406 335.167969 C 74.148438 333.925781 74.066406 332.679688 74.078125 331.429688 L 74.078125 63.578125 C 74.078125 62.699219 74.121094 61.824219 74.207031 60.949219 C 74.296875 60.074219 74.425781 59.207031 74.597656 58.34375 C 74.769531 57.480469 74.984375 56.628906 75.238281 55.789062 C 75.496094 54.949219 75.792969 54.121094 76.128906 53.308594 C 76.464844 52.5 76.839844 51.703125 77.253906 50.929688 C 77.671875 50.15625 78.121094 49.402344 78.609375 48.671875 C 79.097656 47.941406 79.621094 47.234375 80.179688 46.554688 C 80.738281 45.878906 81.328125 45.226562 81.949219 44.605469 C 82.570312 43.984375 83.21875 43.394531 83.898438 42.835938 C 84.578125 42.277344 85.285156 41.753906 86.015625 41.265625 C 86.746094 40.777344 87.5 40.328125 88.273438 39.910156 C 89.046875 39.496094 89.84375 39.121094 90.652344 38.785156 C 91.464844 38.449219 92.292969 38.152344 93.132812 37.894531 C 93.972656 37.640625 94.824219 37.425781 95.6875 37.253906 C 96.550781 37.082031 97.417969 36.953125 98.292969 36.863281 C 99.167969 36.777344 100.042969 36.734375 100.921875 36.734375 L 315.691406 36.734375 C 316.570312 36.734375 317.449219 36.777344 318.324219 36.863281 C 319.199219 36.953125 320.066406 37.082031 320.929688 37.253906 C 321.789062 37.425781 322.640625 37.640625 323.480469 37.894531 C 324.324219 38.152344 325.148438 38.449219 325.960938 38.785156 C 326.773438 39.121094 327.566406 39.496094 328.339844 39.910156 C 329.117188 40.328125 329.871094 40.777344 330.601562 41.265625 C 331.332031 41.753906 332.035156 42.277344 332.714844 42.835938 C 333.394531 43.394531 334.046875 43.984375 334.667969 44.605469 C 335.289062 45.226562 335.878906 45.878906 336.4375 46.554688 C 336.992188 47.234375 337.515625 47.941406 338.003906 48.671875 C 338.492188 49.402344 338.945312 50.15625 339.359375 50.929688 C 339.773438 51.703125 340.148438 52.5 340.488281 53.308594 C 340.824219 54.121094 341.121094 54.949219 341.375 55.789062 C 341.632812 56.628906 341.847656 57.480469 342.019531 58.34375 C 342.191406 59.207031 342.320312 60.074219 342.40625 60.949219 C 342.492188 61.824219 342.539062 62.699219 342.539062 63.578125 L 342.539062 331.335938 C 342.546875 332.585938 342.46875 333.828125 342.296875 335.066406 C 342.128906 336.304688 341.875 337.527344 341.535156 338.730469 C 341.195312 339.933594 340.769531 341.105469 340.261719 342.246094 C 339.757812 343.390625 339.171875 344.488281 338.507812 345.550781 C 337.84375 346.609375 337.109375 347.617188 336.304688 348.570312 C 335.5 349.527344 334.632812 350.421875 333.699219 351.253906 C 332.765625 352.085938 331.78125 352.847656 330.742188 353.542969 C 329.699219 354.234375 328.617188 354.851562 327.488281 355.390625 C 326.335938 355.949219 325.152344 356.421875 323.933594 356.808594 C 322.714844 357.199219 321.472656 357.5 320.210938 357.710938 C 318.949219 357.925781 317.679688 358.046875 316.398438 358.082031 C 315.121094 358.113281 313.84375 358.054688 312.574219 357.90625 C 311.300781 357.761719 310.046875 357.523438 308.808594 357.195312 C 307.570312 356.871094 306.363281 356.460938 305.183594 355.960938 C 304.003906 355.464844 302.867188 354.886719 301.769531 354.230469 C 300.671875 353.570312 299.628906 352.835938 298.632812 352.03125 C 297.46875 351.011719 296.160156 350.246094 294.699219 349.734375 C 293.242188 349.222656 291.742188 349.003906 290.195312 349.070312 C 284.8125 349.070312 282.617188 350.972656 277.710938 355.683594 C 275.941406 357.714844 273.976562 359.535156 271.820312 361.148438 C 269.664062 362.761719 267.363281 364.128906 264.914062 365.253906 C 262.464844 366.375 259.925781 367.230469 257.296875 367.8125 C 254.667969 368.394531 252.007812 368.691406 249.3125 368.707031 Z M 208.414062 326.058594 C 211.109375 326.074219 213.773438 326.371094 216.402344 326.953125 C 219.035156 327.535156 221.574219 328.386719 224.023438 329.507812 C 226.472656 330.632812 228.777344 332 230.933594 333.613281 C 233.09375 335.226562 235.054688 337.050781 236.824219 339.082031 C 241.734375 343.792969 243.929688 345.695312 249.3125 345.695312 C 254.699219 345.695312 256.875 343.792969 261.769531 339.082031 C 263.539062 337.050781 265.507812 335.226562 267.664062 333.613281 C 269.824219 332 272.128906 330.632812 274.582031 329.507812 C 277.03125 328.386719 279.574219 327.535156 282.203125 326.953125 C 284.835938 326.371094 287.5 326.074219 290.195312 326.058594 C 292.253906 326.023438 294.300781 326.167969 296.335938 326.496094 C 298.367188 326.824219 300.355469 327.328125 302.300781 328.007812 C 304.246094 328.691406 306.113281 329.535156 307.90625 330.550781 C 309.699219 331.5625 311.390625 332.722656 312.976562 334.035156 C 313.28125 334.304688 313.621094 334.523438 313.988281 334.691406 C 314.359375 334.859375 314.746094 334.972656 315.148438 335.027344 C 315.550781 335.082031 315.953125 335.074219 316.351562 335.011719 C 316.753906 334.949219 317.136719 334.828125 317.503906 334.648438 C 317.820312 334.507812 318.109375 334.324219 318.371094 334.097656 C 318.632812 333.867188 318.851562 333.605469 319.035156 333.308594 C 319.214844 333.011719 319.347656 332.695312 319.433594 332.359375 C 319.515625 332.023438 319.546875 331.683594 319.527344 331.335938 L 319.527344 63.578125 C 319.527344 63.070312 319.429688 62.582031 319.234375 62.113281 C 319.042969 61.640625 318.765625 61.226562 318.40625 60.867188 C 318.042969 60.507812 317.628906 60.230469 317.160156 60.035156 C 316.691406 59.839844 316.203125 59.742188 315.691406 59.742188 L 100.921875 59.742188 C 100.414062 59.742188 99.925781 59.839844 99.453125 60.035156 C 98.984375 60.230469 98.570312 60.507812 98.210938 60.867188 C 97.851562 61.226562 97.574219 61.640625 97.378906 62.113281 C 97.183594 62.582031 97.085938 63.070312 97.085938 63.578125 L 97.085938 331.398438 C 97.066406 331.746094 97.101562 332.089844 97.1875 332.429688 C 97.269531 332.769531 97.40625 333.089844 97.585938 333.386719 C 97.769531 333.6875 97.992188 333.949219 98.253906 334.179688 C 98.515625 334.414062 98.808594 334.597656 99.128906 334.742188 C 99.488281 334.914062 99.867188 335.027344 100.261719 335.089844 C 100.65625 335.152344 101.050781 335.15625 101.449219 335.101562 C 101.84375 335.050781 102.226562 334.941406 102.589844 334.777344 C 102.953125 334.613281 103.289062 334.402344 103.59375 334.144531 C 105.191406 332.808594 106.894531 331.628906 108.707031 330.601562 C 110.515625 329.574219 112.402344 328.714844 114.367188 328.023438 C 116.332031 327.332031 118.339844 326.824219 120.398438 326.492188 C 122.453125 326.164062 124.519531 326.019531 126.601562 326.058594 C 129.296875 326.074219 131.960938 326.375 134.59375 326.957031 C 137.226562 327.535156 139.769531 328.386719 142.21875 329.507812 C 144.671875 330.628906 146.976562 331.996094 149.140625 333.609375 C 151.300781 335.21875 153.269531 337.039062 155.042969 339.066406 C 159.953125 343.792969 162.164062 345.695312 167.5625 345.695312 C 172.960938 345.695312 175.140625 343.792969 180.035156 339.082031 C 181.804688 337.054688 183.765625 335.234375 185.921875 333.621094 C 188.078125 332.007812 190.378906 330.640625 192.824219 329.519531 C 195.269531 328.394531 197.808594 327.542969 200.433594 326.960938 C 203.0625 326.375 205.722656 326.074219 208.414062 326.058594 Z M 208.414062 326.058594" stroke-linecap="round" />
</g>
		<g transform="matrix(1.33 0 0 1.33 25.57 -124.16)"  >
<path style="stroke: none; stroke-width: 1; stroke-dasharray: none; stroke-linecap: butt; stroke-dashoffset: 0; stroke-linejoin: miter; stroke-miterlimit: 4; fill: rgb(59,166,217); fill-rule: nonzero; opacity: 1;" vector-effect="non-scaling-stroke"  transform=" translate(-227.48, -109.6)" d="M 269.671875 121.105469 L 185.296875 121.105469 C 184.542969 121.105469 183.792969 121.03125 183.050781 120.886719 C 182.3125 120.738281 181.589844 120.519531 180.894531 120.230469 C 180.195312 119.941406 179.53125 119.585938 178.90625 119.167969 C 178.277344 118.75 177.695312 118.269531 177.160156 117.738281 C 176.625 117.203125 176.148438 116.621094 175.730469 115.992188 C 175.308594 115.367188 174.957031 114.703125 174.667969 114.003906 C 174.378906 113.304688 174.160156 112.585938 174.011719 111.847656 C 173.863281 111.105469 173.789062 110.355469 173.792969 109.601562 C 173.789062 108.847656 173.863281 108.097656 174.011719 107.355469 C 174.160156 106.617188 174.378906 105.894531 174.667969 105.199219 C 174.957031 104.5 175.308594 103.835938 175.730469 103.210938 C 176.148438 102.582031 176.625 102 177.160156 101.464844 C 177.695312 100.929688 178.277344 100.453125 178.90625 100.035156 C 179.53125 99.613281 180.195312 99.261719 180.894531 98.972656 C 181.589844 98.683594 182.3125 98.464844 183.050781 98.316406 C 183.792969 98.167969 184.542969 98.097656 185.296875 98.097656 L 269.671875 98.097656 C 270.425781 98.097656 271.175781 98.167969 271.914062 98.316406 C 272.65625 98.464844 273.375 98.683594 274.074219 98.972656 C 274.769531 99.261719 275.433594 99.613281 276.0625 100.035156 C 276.691406 100.453125 277.273438 100.929688 277.804688 101.464844 C 278.339844 102 278.816406 102.582031 279.238281 103.210938 C 279.65625 103.835938 280.011719 104.5 280.300781 105.199219 C 280.589844 105.894531 280.808594 106.617188 280.953125 107.355469 C 281.101562 108.097656 281.175781 108.847656 281.175781 109.601562 C 281.175781 110.355469 281.101562 111.105469 280.953125 111.847656 C 280.808594 112.585938 280.589844 113.304688 280.300781 114.003906 C 280.011719 114.703125 279.65625 115.367188 279.238281 115.992188 C 278.816406 116.621094 278.339844 117.203125 277.804688 117.738281 C 277.273438 118.269531 276.691406 118.75 276.0625 119.167969 C 275.433594 119.585938 274.769531 119.941406 274.074219 120.230469 C 273.375 120.519531 272.65625 120.738281 271.914062 120.886719 C 271.175781 121.03125 270.425781 121.105469 269.671875 121.105469 Z M 269.671875 121.105469" stroke-linecap="round" />
</g>
		<g transform="matrix(1.33 0 0 1.33 25.57 -21.89)"  >
<path style="stroke: none; stroke-width: 1; stroke-dasharray: none; stroke-linecap: butt; stroke-dashoffset: 0; stroke-linejoin: miter; stroke-miterlimit: 4; fill: rgb(59,166,217); fill-rule: nonzero; opacity: 1;" vector-effect="non-scaling-stroke"  transform=" translate(-227.48, -186.3)" d="M 269.671875 197.808594 L 185.296875 197.808594 C 184.542969 197.808594 183.792969 197.738281 183.050781 197.589844 C 182.3125 197.441406 181.589844 197.222656 180.894531 196.933594 C 180.195312 196.644531 179.53125 196.292969 178.90625 195.871094 C 178.277344 195.453125 177.695312 194.976562 177.160156 194.441406 C 176.625 193.90625 176.148438 193.324219 175.730469 192.695312 C 175.308594 192.070312 174.957031 191.40625 174.667969 190.707031 C 174.378906 190.011719 174.160156 189.289062 174.011719 188.550781 C 173.863281 187.808594 173.789062 187.058594 173.792969 186.304688 C 173.789062 185.550781 173.863281 184.800781 174.011719 184.058594 C 174.160156 183.320312 174.378906 182.601562 174.667969 181.902344 C 174.957031 181.203125 175.308594 180.539062 175.730469 179.914062 C 176.148438 179.285156 176.625 178.703125 177.160156 178.167969 C 177.695312 177.636719 178.277344 177.15625 178.90625 176.738281 C 179.53125 176.320312 180.195312 175.964844 180.894531 175.675781 C 181.589844 175.386719 182.3125 175.167969 183.050781 175.019531 C 183.792969 174.875 184.542969 174.800781 185.296875 174.800781 L 269.671875 174.800781 C 270.425781 174.800781 271.175781 174.875 271.914062 175.019531 C 272.65625 175.167969 273.375 175.386719 274.074219 175.675781 C 274.769531 175.964844 275.433594 176.320312 276.0625 176.738281 C 276.691406 177.15625 277.273438 177.636719 277.804688 178.167969 C 278.339844 178.703125 278.816406 179.285156 279.238281 179.914062 C 279.65625 180.539062 280.011719 181.203125 280.300781 181.902344 C 280.589844 182.601562 280.808594 183.320312 280.953125 184.058594 C 281.101562 184.800781 281.175781 185.550781 281.175781 186.304688 C 281.175781 187.058594 281.101562 187.808594 280.953125 188.550781 C 280.808594 189.289062 280.589844 190.011719 280.300781 190.707031 C 280.011719 191.40625 279.65625 192.070312 279.238281 192.695312 C 278.816406 193.324219 278.339844 193.90625 277.804688 194.441406 C 277.273438 194.976562 276.691406 195.453125 276.0625 195.871094 C 275.433594 196.292969 274.769531 196.644531 274.074219 196.933594 C 273.375 197.222656 272.65625 197.441406 271.914062 197.589844 C 271.175781 197.738281 270.425781 197.808594 269.671875 197.808594 Z M 269.671875 197.808594" stroke-linecap="round" />
</g>
		<g transform="matrix(1.33 0 0 1.33 25.57 80.39)"  >
<path style="stroke: none; stroke-width: 1; stroke-dasharray: none; stroke-linecap: butt; stroke-dashoffset: 0; stroke-linejoin: miter; stroke-miterlimit: 4; fill: rgb(59,166,217); fill-rule: nonzero; opacity: 1;" vector-effect="non-scaling-stroke"  transform=" translate(-227.48, -263.01)" d="M 269.671875 274.515625 L 185.296875 274.515625 C 184.542969 274.515625 183.792969 274.441406 183.050781 274.292969 C 182.3125 274.144531 181.589844 273.925781 180.894531 273.636719 C 180.195312 273.347656 179.53125 272.996094 178.90625 272.574219 C 178.277344 272.15625 177.695312 271.679688 177.160156 271.144531 C 176.625 270.609375 176.148438 270.027344 175.730469 269.402344 C 175.308594 268.773438 174.957031 268.109375 174.667969 267.410156 C 174.378906 266.714844 174.160156 265.992188 174.011719 265.253906 C 173.863281 264.511719 173.789062 263.765625 173.792969 263.007812 C 173.789062 262.253906 173.863281 261.503906 174.011719 260.765625 C 174.160156 260.023438 174.378906 259.304688 174.667969 258.605469 C 174.957031 257.90625 175.308594 257.246094 175.730469 256.617188 C 176.148438 255.988281 176.625 255.40625 177.160156 254.871094 C 177.695312 254.339844 178.277344 253.863281 178.90625 253.441406 C 179.53125 253.023438 180.195312 252.667969 180.894531 252.378906 C 181.589844 252.089844 182.3125 251.871094 183.050781 251.722656 C 183.792969 251.578125 184.542969 251.503906 185.296875 251.503906 L 269.671875 251.503906 C 270.425781 251.503906 271.175781 251.578125 271.914062 251.722656 C 272.65625 251.871094 273.375 252.089844 274.074219 252.378906 C 274.769531 252.667969 275.433594 253.023438 276.0625 253.441406 C 276.691406 253.863281 277.273438 254.339844 277.804688 254.871094 C 278.339844 255.40625 278.816406 255.988281 279.238281 256.617188 C 279.65625 257.246094 280.011719 257.90625 280.300781 258.605469 C 280.589844 259.304688 280.808594 260.023438 280.953125 260.765625 C 281.101562 261.503906 281.175781 262.253906 281.175781 263.007812 C 281.175781 263.765625 281.101562 264.511719 280.953125 265.253906 C 280.808594 265.992188 280.589844 266.714844 280.300781 267.410156 C 280.011719 268.109375 279.65625 268.773438 279.238281 269.402344 C 278.816406 270.027344 278.339844 270.609375 277.804688 271.144531 C 277.273438 271.679688 276.691406 272.15625 276.0625 272.574219 C 275.433594 272.996094 274.769531 273.347656 274.074219 273.636719 C 273.375 273.925781 272.65625 274.144531 271.914062 274.292969 C 271.175781 274.441406 270.425781 274.515625 269.671875 274.515625 Z M 269.671875 274.515625" stroke-linecap="round" />
</g>
		<g transform="matrix(1.33 0 0 1.33 -81.82 -21.89)"  >
<path style="stroke: none; stroke-width: 1; stroke-dasharray: none; stroke-linecap: butt; stroke-dashoffset: 0; stroke-linejoin: miter; stroke-miterlimit: 4; fill: rgb(59,166,217); fill-rule: nonzero; opacity: 1;" vector-effect="non-scaling-stroke"  transform=" translate(-146.95, -186.3)" d="M 162.285156 186.304688 C 162.285156 187.3125 162.1875 188.308594 161.992188 189.296875 C 161.792969 190.285156 161.503906 191.246094 161.117188 192.175781 C 160.730469 193.105469 160.257812 193.988281 159.699219 194.828125 C 159.140625 195.664062 158.503906 196.441406 157.792969 197.152344 C 157.078125 197.863281 156.304688 198.5 155.46875 199.058594 C 154.628906 199.621094 153.746094 200.09375 152.816406 200.476562 C 151.886719 200.863281 150.925781 201.152344 149.9375 201.351562 C 148.949219 201.546875 147.953125 201.644531 146.945312 201.644531 C 145.9375 201.644531 144.941406 201.546875 143.953125 201.351562 C 142.964844 201.152344 142.003906 200.863281 141.074219 200.476562 C 140.144531 200.09375 139.257812 199.621094 138.421875 199.058594 C 137.585938 198.5 136.808594 197.863281 136.097656 197.152344 C 135.386719 196.441406 134.75 195.664062 134.1875 194.828125 C 133.628906 193.988281 133.15625 193.105469 132.773438 192.175781 C 132.386719 191.246094 132.09375 190.285156 131.898438 189.296875 C 131.703125 188.308594 131.605469 187.3125 131.605469 186.304688 C 131.605469 185.296875 131.703125 184.300781 131.898438 183.3125 C 132.09375 182.324219 132.386719 181.363281 132.773438 180.433594 C 133.15625 179.503906 133.628906 178.621094 134.1875 177.78125 C 134.75 176.945312 135.386719 176.167969 136.097656 175.457031 C 136.808594 174.746094 137.585938 174.109375 138.421875 173.550781 C 139.257812 172.988281 140.144531 172.515625 141.074219 172.132812 C 142.003906 171.746094 142.964844 171.457031 143.953125 171.257812 C 144.941406 171.0625 145.9375 170.964844 146.945312 170.964844 C 147.953125 170.964844 148.949219 171.0625 149.9375 171.257812 C 150.925781 171.457031 151.886719 171.746094 152.816406 172.132812 C 153.746094 172.515625 154.628906 172.988281 155.46875 173.550781 C 156.304688 174.109375 157.078125 174.746094 157.792969 175.457031 C 158.503906 176.167969 159.140625 176.945312 159.699219 177.78125 C 160.257812 178.621094 160.730469 179.503906 161.117188 180.433594 C 161.503906 181.363281 161.792969 182.324219 161.992188 183.3125 C 162.1875 184.300781 162.285156 185.296875 162.285156 186.304688 Z M 162.285156 186.304688" stroke-linecap="round" />
</g>
		<g transform="matrix(1.33 0 0 1.33 -81.82 -124.16)"  >
<path style="stroke: none; stroke-width: 1; stroke-dasharray: none; stroke-linecap: butt; stroke-dashoffset: 0; stroke-linejoin: miter; stroke-miterlimit: 4; fill: rgb(59,166,217); fill-rule: nonzero; opacity: 1;" vector-effect="non-scaling-stroke"  transform=" translate(-146.95, -109.6)" d="M 162.285156 109.601562 C 162.285156 110.609375 162.1875 111.605469 161.992188 112.59375 C 161.792969 113.582031 161.503906 114.542969 161.117188 115.472656 C 160.730469 116.402344 160.257812 117.285156 159.699219 118.125 C 159.140625 118.960938 158.503906 119.738281 157.792969 120.449219 C 157.078125 121.160156 156.304688 121.796875 155.46875 122.355469 C 154.628906 122.917969 153.746094 123.390625 152.816406 123.773438 C 151.886719 124.160156 150.925781 124.449219 149.9375 124.648438 C 148.949219 124.84375 147.953125 124.941406 146.945312 124.941406 C 145.9375 124.941406 144.941406 124.84375 143.953125 124.648438 C 142.964844 124.449219 142.003906 124.160156 141.074219 123.773438 C 140.144531 123.390625 139.257812 122.917969 138.421875 122.355469 C 137.585938 121.796875 136.808594 121.160156 136.097656 120.449219 C 135.386719 119.738281 134.75 118.960938 134.1875 118.125 C 133.628906 117.285156 133.15625 116.402344 132.773438 115.472656 C 132.386719 114.542969 132.09375 113.582031 131.898438 112.59375 C 131.703125 111.605469 131.605469 110.609375 131.605469 109.601562 C 131.605469 108.59375 131.703125 107.597656 131.898438 106.609375 C 132.09375 105.621094 132.386719 104.660156 132.773438 103.730469 C 133.15625 102.800781 133.628906 101.914062 134.1875 101.078125 C 134.75 100.242188 135.386719 99.464844 136.097656 98.753906 C 136.808594 98.042969 137.585938 97.40625 138.421875 96.847656 C 139.257812 96.285156 140.144531 95.8125 141.074219 95.429688 C 142.003906 95.042969 142.964844 94.75 143.953125 94.554688 C 144.941406 94.359375 145.9375 94.261719 146.945312 94.261719 C 147.953125 94.261719 148.949219 94.359375 149.9375 94.554688 C 150.925781 94.75 151.886719 95.042969 152.816406 95.429688 C 153.746094 95.8125 154.628906 96.285156 155.46875 96.847656 C 156.304688 97.40625 157.078125 98.042969 157.792969 98.753906 C 158.503906 99.464844 159.140625 100.242188 159.699219 101.078125 C 160.257812 101.917969 160.730469 102.800781 161.117188 103.730469 C 161.503906 104.660156 161.792969 105.621094 161.992188 106.609375 C 162.1875 107.597656 162.285156 108.59375 162.285156 109.601562 Z M 162.285156 109.601562" stroke-linecap="round" />
</g>
		<g transform="matrix(1.33 0 0 1.33 -81.82 80.38)"  >
<path style="stroke: none; stroke-width: 1; stroke-dasharray: none; stroke-linecap: butt; stroke-dashoffset: 0; stroke-linejoin: miter; stroke-miterlimit: 4; fill: rgb(59,166,217); fill-rule: nonzero; opacity: 1;" vector-effect="non-scaling-stroke"  transform=" translate(-146.95, -263.01)" d="M 162.285156 263.007812 C 162.285156 264.015625 162.1875 265.011719 161.992188 266 C 161.792969 266.988281 161.503906 267.949219 161.117188 268.878906 C 160.730469 269.808594 160.257812 270.695312 159.699219 271.53125 C 159.140625 272.367188 158.503906 273.144531 157.792969 273.855469 C 157.078125 274.566406 156.304688 275.203125 155.46875 275.765625 C 154.628906 276.324219 153.746094 276.796875 152.816406 277.179688 C 151.886719 277.566406 150.925781 277.859375 149.9375 278.054688 C 148.949219 278.25 147.953125 278.347656 146.945312 278.347656 C 145.9375 278.347656 144.941406 278.25 143.953125 278.054688 C 142.964844 277.859375 142.003906 277.566406 141.074219 277.179688 C 140.144531 276.796875 139.257812 276.324219 138.421875 275.765625 C 137.585938 275.203125 136.808594 274.566406 136.097656 273.855469 C 135.386719 273.144531 134.75 272.367188 134.1875 271.53125 C 133.628906 270.695312 133.15625 269.808594 132.773438 268.878906 C 132.386719 267.949219 132.09375 266.988281 131.898438 266 C 131.703125 265.011719 131.605469 264.015625 131.605469 263.007812 C 131.605469 262 131.703125 261.003906 131.898438 260.015625 C 132.09375 259.027344 132.386719 258.070312 132.773438 257.136719 C 133.15625 256.207031 133.628906 255.324219 134.1875 254.484375 C 134.75 253.648438 135.386719 252.875 136.097656 252.160156 C 136.808594 251.449219 137.585938 250.8125 138.421875 250.253906 C 139.257812 249.695312 140.144531 249.222656 141.074219 248.835938 C 142.003906 248.449219 142.964844 248.160156 143.953125 247.960938 C 144.941406 247.765625 145.9375 247.667969 146.945312 247.667969 C 147.953125 247.667969 148.949219 247.765625 149.9375 247.960938 C 150.925781 248.160156 151.886719 248.449219 152.816406 248.835938 C 153.746094 249.222656 154.628906 249.695312 155.46875 250.253906 C 156.304688 250.8125 157.078125 251.449219 157.792969 252.160156 C 158.503906 252.875 159.140625 253.648438 159.699219 254.484375 C 160.257812 255.324219 160.730469 256.207031 161.117188 257.136719 C 161.503906 258.070312 161.792969 259.027344 161.992188 260.015625 C 162.1875 261.003906 162.285156 262 162.285156 263.007812 Z M 162.285156 263.007812" stroke-linecap="round" />
</g>
</g>
</g>
</svg>