<svg xmlns="http://www.w3.org/2000/svg" xmlns:xlink="http://www.w3.org/1999/xlink" width="500" zoomAndPan="magnify" viewBox="0 0 375 374.999991" height="500" preserveAspectRatio="xMidYMid meet" version="1.0"><defs><clipPath id="46c88bfc5c"><path d="M 38 101.140625 L 354 101.140625 L 354 315.640625 L 38 315.640625 Z M 38 101.140625 " clip-rule="nonzero"/></clipPath></defs><g clip-path="url(#46c88bfc5c)"><path fill="#ff4f4f" d="M 77.195312 101.015625 C 55.832031 101.015625 38.644531 118.367188 38.644531 139.921875 L 38.644531 276.859375 C 38.644531 298.410156 55.832031 315.761719 77.195312 315.761719 L 226.921875 315.761719 C 248.28125 315.761719 265.464844 298.410156 265.464844 276.859375 L 265.464844 245.496094 L 320.417969 284.402344 C 333.449219 295.289062 353.964844 289.875 353.945312 269.15625 L 353.882812 147.601562 C 353.859375 126.882812 333.34375 121.46875 320.351562 132.398438 L 265.460938 171.363281 L 265.460938 139.921875 C 265.460938 118.367188 248.277344 101.015625 226.917969 101.015625 Z M 77.195312 101.015625 " fill-opacity="1" fill-rule="nonzero"/></g></svg>