<svg xmlns="http://www.w3.org/2000/svg" xmlns:xlink="http://www.w3.org/1999/xlink" width="500" zoomAndPan="magnify" viewBox="0 0 375 374.999991" height="500" preserveAspectRatio="xMidYMid meet" version="1.0"><defs><clipPath id="70bea7c62f"><path d="M 15.816406 59 L 366.816406 59 L 366.816406 303 L 15.816406 303 Z M 15.816406 59 " clip-rule="nonzero"/></clipPath><clipPath id="07a58db9aa"><path d="M 15.816406 180 L 366.816406 180 L 366.816406 303 L 15.816406 303 Z M 15.816406 180 " clip-rule="nonzero"/></clipPath></defs><g clip-path="url(#70bea7c62f)"><path fill="#ffea07" d="M 64.4375 59.277344 C 37.089844 59.277344 14.914062 81.449219 14.914062 108.800781 L 14.914062 252.867188 C 14.914062 280.21875 37.089844 302.390625 64.4375 302.390625 L 235.519531 302.390625 C 262.871094 302.390625 285.042969 280.21875 285.042969 252.867188 L 285.042969 237.636719 L 347.089844 265.210938 C 351.265625 267.070312 356.101562 266.683594 359.933594 264.195312 C 363.769531 261.703125 366.078125 257.441406 366.078125 252.867188 L 366.078125 108.800781 C 366.078125 104.230469 363.769531 99.96875 359.933594 97.476562 C 356.101562 94.984375 351.265625 94.601562 347.089844 96.460938 L 285.042969 124.035156 L 285.042969 108.800781 C 285.042969 81.449219 262.871094 59.277344 235.519531 59.277344 Z M 64.4375 59.277344 " fill-opacity="1" fill-rule="nonzero"/></g><path fill="#f9f9f9" d="M 68.941406 126.808594 C 68.941406 119.351562 74.988281 113.304688 82.449219 113.304688 L 154.480469 113.304688 C 161.941406 113.304688 167.988281 119.351562 167.988281 126.808594 C 167.988281 134.269531 161.941406 140.316406 154.480469 140.316406 L 82.449219 140.316406 C 74.988281 140.316406 68.941406 134.269531 68.941406 126.808594 Z M 68.941406 126.808594 " fill-opacity="1" fill-rule="evenodd"/><g clip-path="url(#07a58db9aa)"><path fill="#ffde59" d="M 366.078125 180.835938 L 14.914062 180.835938 L 14.914062 252.867188 C 14.914062 280.21875 37.089844 302.390625 64.4375 302.390625 L 235.519531 302.390625 C 262.871094 302.390625 285.042969 280.21875 285.042969 252.867188 L 285.042969 237.636719 L 347.089844 265.210938 C 351.265625 267.070312 356.101562 266.683594 359.933594 264.195312 C 363.769531 261.703125 366.078125 257.441406 366.078125 252.867188 Z M 366.078125 180.835938 " fill-opacity="1" fill-rule="evenodd"/></g></svg>