<svg xmlns="http://www.w3.org/2000/svg" xmlns:xlink="http://www.w3.org/1999/xlink" width="500" zoomAndPan="magnify" viewBox="0 0 375 374.999991" height="500" preserveAspectRatio="xMidYMid meet" version="1.0"><defs><clipPath id="aaf958fe7b"><path d="M 38 99.097656 L 354 99.097656 L 354 313.597656 L 38 313.597656 Z M 38 99.097656 " clip-rule="nonzero"/></clipPath></defs><g clip-path="url(#aaf958fe7b)"><path fill="#d9d9d9" d="M 77.195312 98.972656 C 55.832031 98.972656 38.644531 116.324219 38.644531 137.875 L 38.644531 274.816406 C 38.644531 296.363281 55.832031 313.71875 77.195312 313.71875 L 226.921875 313.71875 C 248.28125 313.71875 265.464844 296.363281 265.464844 274.816406 L 265.464844 243.453125 L 320.417969 282.359375 C 333.449219 293.242188 353.964844 287.828125 353.945312 267.113281 L 353.882812 145.558594 C 353.859375 124.839844 333.34375 119.425781 320.351562 130.355469 L 265.460938 169.316406 L 265.460938 137.875 C 265.460938 116.324219 248.277344 98.972656 226.917969 98.972656 Z M 77.195312 98.972656 " fill-opacity="1" fill-rule="nonzero"/></g></svg>