<svg xmlns="http://www.w3.org/2000/svg" xmlns:xlink="http://www.w3.org/1999/xlink" width="500" zoomAndPan="magnify" viewBox="0 0 375 374.999991" height="500" preserveAspectRatio="xMidYMid meet" version="1.0"><defs><clipPath id="4cd846e5fe"><path d="M 40 18 L 334 18 L 334 360.78125 L 40 360.78125 Z M 40 18 " clip-rule="nonzero"/></clipPath></defs><g clip-path="url(#4cd846e5fe)"><path fill="#ff4f4f" d="M 233.039062 237.539062 C 244.453125 229.398438 259.570312 233.578125 269.800781 243.160156 L 321.109375 291.226562 C 331.976562 301.40625 337.492188 317.191406 329.394531 329.6875 C 317.304688 348.347656 296.292969 360.695312 272.394531 360.695312 C 271.289062 360.695312 270.191406 360.667969 269.09375 360.617188 C 269.09375 360.617188 269.089844 360.617188 269.089844 360.621094 C 269.089844 360.625 269.085938 360.625 269.085938 360.625 L 268.511719 360.585938 C 267.601562 360.523438 266.695312 360.453125 265.789062 360.378906 C 231.976562 357.601562 199.097656 347.84375 169.226562 331.707031 C 138.390625 315.046875 111.476562 291.96875 90.304688 264.035156 C 69.132812 236.101562 54.195312 203.953125 46.492188 169.761719 C 39.289062 137.789062 38.570312 104.71875 44.355469 72.503906 C 47.558594 49.636719 62.15625 30.421875 82.230469 20.785156 C 95.757812 14.292969 110.808594 21.949219 119.460938 34.207031 L 159.222656 90.539062 C 167.894531 102.816406 170.039062 119.585938 159.371094 130.171875 C 147.101562 142.34375 130.210938 149.863281 111.566406 149.863281 C 110.136719 149.863281 108.71875 149.820312 107.3125 149.734375 C 106.683594 149.695312 106.183594 150.253906 106.300781 150.871094 C 106.316406 150.953125 106.332031 151.03125 106.347656 151.109375 C 106.671875 152.757812 107.019531 154.40625 107.386719 156.046875 C 113.132812 181.539062 124.269531 205.507812 140.054688 226.335938 C 155.84375 247.164062 175.90625 264.371094 198.898438 276.792969 C 202.277344 278.617188 206.382812 276.542969 207.511719 272.875 C 211.9375 258.460938 221.035156 246.097656 233.039062 237.539062 Z M 233.039062 237.539062 " fill-opacity="1" fill-rule="nonzero"/></g></svg>