<svg xmlns="http://www.w3.org/2000/svg" xmlns:xlink="http://www.w3.org/1999/xlink" width="500" zoomAndPan="magnify" viewBox="0 0 375 374.999991" height="500" preserveAspectRatio="xMidYMid meet" version="1.0"><defs><clipPath id="22e1b0a78d"><path d="M 39 18 L 333 18 L 333 360.78125 L 39 360.78125 Z M 39 18 " clip-rule="nonzero"/></clipPath></defs><g clip-path="url(#22e1b0a78d)"><path fill="#d9d9d9" d="M 231.96875 237.539062 C 243.386719 229.398438 258.5 233.578125 268.734375 243.160156 L 320.042969 291.226562 C 330.910156 301.40625 336.425781 317.191406 328.328125 329.6875 C 316.234375 348.347656 295.222656 360.695312 271.328125 360.695312 C 270.222656 360.695312 269.121094 360.667969 268.027344 360.617188 C 268.023438 360.617188 268.023438 360.617188 268.023438 360.621094 C 268.023438 360.625 268.019531 360.625 268.015625 360.625 L 267.445312 360.585938 C 266.535156 360.523438 265.628906 360.453125 264.71875 360.378906 C 230.90625 357.601562 198.027344 347.84375 168.160156 331.707031 C 137.320312 315.046875 110.40625 291.96875 89.238281 264.035156 C 68.066406 236.101562 53.125 203.953125 45.425781 169.761719 C 38.222656 137.789062 37.503906 104.71875 43.285156 72.503906 C 46.488281 49.636719 61.089844 30.421875 81.160156 20.785156 C 94.6875 14.292969 109.738281 21.949219 118.390625 34.207031 L 158.15625 90.539062 C 166.824219 102.816406 168.972656 119.585938 158.300781 130.171875 C 146.035156 142.34375 129.144531 149.863281 110.496094 149.863281 C 109.070312 149.863281 107.652344 149.820312 106.246094 149.734375 C 105.617188 149.695312 105.113281 150.253906 105.234375 150.871094 C 105.25 150.953125 105.265625 151.03125 105.28125 151.109375 C 105.605469 152.757812 105.949219 154.40625 106.320312 156.046875 C 112.0625 181.539062 123.203125 205.507812 138.988281 226.335938 C 154.773438 247.164062 174.839844 264.371094 197.832031 276.792969 C 201.207031 278.617188 205.316406 276.542969 206.441406 272.875 C 210.871094 258.460938 219.96875 246.097656 231.96875 237.539062 Z M 231.96875 237.539062 " fill-opacity="1" fill-rule="nonzero"/></g></svg>